<svg width="169" height="169" viewBox="0 0 169 169" version="1.1" xmlns="http://www.w3.org/2000/svg" xmlns:xlink="http://www.w3.org/1999/xlink" xml:space="preserve" xmlns:serif="http://www.serif.com/" style="fill-rule:evenodd;clip-rule:evenodd;stroke-linejoin:round;stroke-miterlimit:2;">
    <g transform="matrix(2.64062,0,0,2.64062,0,0)">
        <path d="M64,0L64,64L0,64L0,0L64,0ZM61.728,2.272L2.272,2.272L2.272,61.728L61.728,61.728L61.728,2.272Z" style="fill:rgb(170,170,170);fill-opacity:0.49;"/>
    </g>
    <g transform="matrix(1,0,0,1,41,41)">
        <g transform="matrix(1,0,0,1,-20.5,-20.5)">
            <path d="M94.79,87C93.132,87.507 91.404,87.754 89.67,87.73C74.23,87.73 51.56,33.78 51.56,15.82C51.56,9.22 53.13,7.01 55.34,5.12C36.44,7.32 13.77,14.26 6.52,23.12C5,25.27 4,28.73 4,33.14C4,61.14 33.92,124.78 55,124.78C64.77,124.78 81.23,108.78 94.77,86.99" style="fill:rgb(244,151,0);fill-rule:nonzero;"/>
        </g>
        <g transform="matrix(1,0,0,1,-20.5,-20.5)">
            <path d="M84.94,3.22C104.46,3.22 124,6.37 124,17.39C124,39.75 109.82,66.85 102.58,66.85C89.67,66.85 73.58,30.94 73.58,12.98C73.58,4.79 76.72,3.22 84.91,3.22" style="fill:rgb(244,151,0);fill-rule:nonzero;"/>
        </g>
    </g>
    <g transform="matrix(1,0,0,1,0.0188152,15.7071)">
        <path d="M60.729,113.986C60.729,118.737 60.109,122.801 58.867,126.178C57.626,129.554 55.844,132.31 53.522,134.446C51.2,136.581 48.377,138.15 45.054,139.15C41.731,140.151 37.773,140.652 33.182,140.652L20.81,140.652C19.929,140.652 19.189,140.392 18.588,139.871C17.987,139.351 17.687,138.503 17.687,137.329L17.687,92.165C17.687,90.99 17.987,90.143 18.588,89.622C19.189,89.102 19.929,88.841 20.81,88.841L34.103,88.841C38.721,88.841 42.638,89.382 45.855,90.463C49.071,91.544 51.78,93.146 53.983,95.268C56.185,97.39 57.86,100.012 59.007,103.135C60.155,106.258 60.729,109.875 60.729,113.986ZM49.839,114.346C49.839,111.891 49.552,109.608 48.978,107.5C48.404,105.391 47.483,103.562 46.215,102.014C44.947,100.466 43.319,99.258 41.33,98.391C39.342,97.523 36.732,97.089 33.503,97.089L28.177,97.089L28.177,132.324L33.663,132.324C36.546,132.324 38.975,131.95 40.95,131.203C42.925,130.455 44.573,129.328 45.895,127.819C47.216,126.311 48.204,124.436 48.858,122.194C49.512,119.952 49.839,117.336 49.839,114.346Z" style="fill:rgb(189,89,58);fill-rule:nonzero;"/>
        <path d="M100.088,136.528C100.088,137.302 100.054,137.949 99.987,138.47C99.921,138.99 99.821,139.411 99.687,139.731C99.554,140.051 99.387,140.285 99.187,140.432C98.986,140.579 98.766,140.652 98.526,140.652L72.501,140.652C71.62,140.652 70.879,140.392 70.278,139.871C69.678,139.351 69.378,138.503 69.378,137.329L69.378,92.165C69.378,90.99 69.678,90.143 70.278,89.622C70.879,89.102 71.62,88.841 72.501,88.841L98.366,88.841C98.606,88.841 98.82,88.908 99.007,89.042C99.193,89.175 99.354,89.409 99.487,89.742C99.62,90.076 99.721,90.503 99.787,91.024C99.854,91.544 99.887,92.205 99.887,93.005C99.887,93.753 99.854,94.387 99.787,94.907C99.721,95.428 99.62,95.848 99.487,96.169C99.354,96.489 99.193,96.722 99.007,96.869C98.82,97.016 98.606,97.089 98.366,97.089L79.868,97.089L79.868,109.742L95.523,109.742C95.763,109.742 95.984,109.815 96.184,109.962C96.384,110.109 96.551,110.336 96.684,110.643C96.818,110.95 96.918,111.363 96.985,111.884C97.051,112.404 97.085,113.038 97.085,113.786C97.085,114.56 97.051,115.2 96.985,115.708C96.918,116.215 96.818,116.622 96.684,116.929C96.551,117.236 96.384,117.456 96.184,117.589C95.984,117.723 95.763,117.79 95.523,117.79L79.868,117.79L79.868,132.404L98.526,132.404C98.766,132.404 98.986,132.477 99.187,132.624C99.387,132.771 99.554,133.004 99.687,133.325C99.821,133.645 99.921,134.066 99.987,134.586C100.054,135.107 100.088,135.754 100.088,136.528Z" style="fill:rgb(189,89,58);fill-rule:nonzero;"/>
        <path d="M135.162,138.81C135.028,139.264 134.855,139.631 134.641,139.911C134.428,140.191 134.081,140.405 133.6,140.552C133.12,140.699 132.466,140.792 131.638,140.832C130.811,140.872 129.73,140.892 128.395,140.892C127.327,140.892 126.413,140.886 125.653,140.872C124.892,140.859 124.244,140.825 123.711,140.772C123.177,140.719 122.743,140.639 122.409,140.532C122.076,140.425 121.795,140.292 121.569,140.131C121.342,139.971 121.168,139.778 121.048,139.551C120.928,139.324 120.814,139.037 120.708,138.69L105.293,92.765C104.972,91.804 104.779,91.044 104.712,90.483C104.645,89.922 104.779,89.502 105.112,89.222C105.446,88.941 106.013,88.768 106.814,88.701C107.615,88.635 108.736,88.601 110.177,88.601C111.405,88.601 112.366,88.628 113.06,88.681C113.754,88.735 114.288,88.828 114.662,88.962C115.035,89.095 115.296,89.295 115.443,89.562C115.589,89.829 115.729,90.163 115.863,90.563L128.475,130.522L128.515,130.522L140.887,90.763C140.994,90.309 141.128,89.942 141.288,89.662C141.448,89.382 141.722,89.162 142.109,89.002C142.496,88.841 143.049,88.735 143.77,88.681C144.491,88.628 145.479,88.601 146.733,88.601C147.961,88.601 148.915,88.641 149.596,88.721C150.277,88.801 150.744,88.995 150.997,89.302C151.251,89.609 151.331,90.043 151.237,90.603C151.144,91.164 150.937,91.911 150.617,92.845L135.162,138.81Z" style="fill:rgb(189,89,58);fill-rule:nonzero;"/>
    </g>
</svg>
