<?xml version="1.0" encoding="UTF-8" standalone="no"?>
<!DOCTYPE svg PUBLIC "-//W3C//DTD SVG 1.1//EN" "http://www.w3.org/Graphics/SVG/1.1/DTD/svg11.dtd">
<svg width="100%" height="100%" viewBox="0 0 169 169" version="1.1" xmlns="http://www.w3.org/2000/svg" xmlns:xlink="http://www.w3.org/1999/xlink" xml:space="preserve" xmlns:serif="http://www.serif.com/" style="fill-rule:evenodd;clip-rule:evenodd;stroke-linejoin:round;stroke-miterlimit:2;">
    <g transform="matrix(2.64062,0,0,2.64062,0,0)">
        <g transform="matrix(0.378224,0,0,0.37905,0.0950807,-0.109301)">
            <path d="M21.947,169.132L-0.251,169.132L-0.251,0.288L86.687,0.288L21.947,169.132Z" style="fill:rgb(189,89,58);"/>
        </g>
        <g transform="matrix(0.378224,0,0,0.37905,0.0950807,-0.109301)">
            <path d="M146.763,0.288L168.961,0.288L168.961,169.132L82.022,169.132L146.763,0.288Z" style="fill:rgb(47,156,145);"/>
        </g>
        <g transform="matrix(0.419335,0,0,0.376123,5.30107,2.12584)">
            <path d="M119.959,-5.652L61.566,164.506L7.38,164.506L65.774,-5.652L119.959,-5.652Z" style="fill:rgb(243,156,18);"/>
        </g>
    </g>
    <g transform="matrix(0.833333,0,0,0.833333,48.25,48.25)">
        <g transform="matrix(1,0,0,1,-20.5,-20.5)">
            <path d="M94.79,87C93.132,87.507 91.404,87.754 89.67,87.73C74.23,87.73 51.56,33.78 51.56,15.82C51.56,9.22 53.13,7.01 55.34,5.12C36.44,7.32 13.77,14.26 6.52,23.12C5,25.27 4,28.73 4,33.14C4,61.14 33.92,124.78 55,124.78C64.77,124.78 81.23,108.78 94.77,86.99" style="fill:white;fill-rule:nonzero;"/>
        </g>
        <g transform="matrix(1,0,0,1,-20.5,-20.5)">
            <path d="M84.94,3.22C104.46,3.22 124,6.37 124,17.39C124,39.75 109.82,66.85 102.58,66.85C89.67,66.85 73.58,30.94 73.58,12.98C73.58,4.79 76.72,3.22 84.91,3.22" style="fill:white;fill-rule:nonzero;"/>
        </g>
    </g>
</svg>
